<svg xmlns="http://www.w3.org/2000/svg" width="96" height="96" viewBox="0 0 72 72"><path fill-rule="evenodd" d="M41.54 21.602c-.04.023-.063.078-.083.171-.039.165-.07.32-.094.403-.008.023-.02.066-.027.097-.004.032-.023.102-.035.157-.012.05-.031.125-.04.172-.003.043-.019.078-.019.078a.4.4 0 0 0-.015.078c-.032.137-.07.281-.082.336l-.028.125c-.004.031-.023.105-.035.156-.012.055-.027.117-.031.145-.008.02-.02.062-.028.085a1 1 0 0 1-.03.153l-.044.148c-.011.074-.144.532-.168.606-.011.043-.054.187-.062.238-.008.023-.024.102-.04.156-.015.063-.034.137-.034.164a.7.7 0 0 1-.07.211c-.036.051-.087.074-.177.094-.086.023-.18.023-.543.008-.335-.016-.867-.02-2.53-.031-.77 0-1.973-.016-2.688-.02-.711-.008-2.66-.008-4.332-.008l-3.032.008-.066.023c-.152.051-.187.094-.27.282-.007.027-.019.05-.019.058a.1.1 0 0 1-.012.035c-.008.012-.02.051-.031.075-.012.05-.102.218-.156.32-.032.063-.133.242-.145.273-.004.02-.023.051-.035.079a1 1 0 0 0-.059.117c-.05.093-.113.218-.125.23-.003.02-.113.219-.261.512l-.207.406-.223.434c-.02.035-.031.066-.039.082a.2.2 0 0 0-.04.074c-.015.035-.042.074-.062.117a6 6 0 0 1-.136.27 4 4 0 0 0-.117.238 2 2 0 0 0-.106.207c-.05.106-.102.203-.113.23-.012.024-.04.067-.051.098-.02.031-.07.14-.117.235-.051.097-.235.46-.403.812a35 35 0 0 1-.332.66c-.003.012-.421.844-.546 1.094-.196.387-.594 1.2-.809 1.633-.05.105-.129.273-.18.375-.05.097-.105.21-.12.25-.032.062-.055.113-.095.18 0 .007-.043.093-.085.187a15 15 0 0 1-.18.371c-.125.262-.219.453-.258.543-.02.035-.074.148-.133.254-.047.11-.125.27-.168.363l-.086.176c-.008.012-.02.05-.039.082a9 9 0 0 1-.293.617c-.133.258-.148.352-.101.403.039.035.14.043.894.043.29.003.824.011 1.2.02.828.01 6.64.003 6.913-.017l.395-.015c.336-.016.504-.051.75-.156.063-.028.129-.051.191-.082a1 1 0 0 1 .125-.051.3.3 0 0 1 .059-.024c.023-.008.063-.027.094-.039.094-.031.18-.062.21-.074l.06-.027c.015-.004.054-.024.085-.035a6 6 0 0 0 .395-.188c.004-.008.054-.031.105-.059.055-.03.102-.054.106-.062.008-.004.039-.016.07-.035s.074-.043.098-.063a.2.2 0 0 1 .058-.031 2 2 0 0 0 .16-.113 8 8 0 0 0 1.157-1.086c.027-.04.058-.07.09-.102.117-.136.406-.511.511-.664.012-.023.032-.043.043-.066l.031-.043.04-.063a.3.3 0 0 0 .035-.062c0-.008.02-.031.039-.063a.2.2 0 0 0 .039-.07l.015-.031a1 1 0 0 0 .059-.102c.043-.078.113-.199.129-.234a.3.3 0 0 0 .031-.059c.016-.023.082-.144.153-.261.175-.313.238-.438.238-.493 0-.039-.008-.05-.031-.07-.04-.023-.09-.031-.204-.012-.18.032-.785.035-3.855.051-2.191.004-2.805.012-3.023.023-.165.008-.184.008-.22-.007-.09-.032-.09-.067.024-.305.012-.031.04-.086.051-.113a1 1 0 0 1 .082-.149c.082-.152.211-.402.406-.812a.5.5 0 0 0 .035-.09s.028-.055.059-.11c.098-.218.137-.3.137-.308 0 0 .039-.074.074-.16.043-.09.094-.188.113-.235.02-.043.106-.218.196-.386a9 9 0 0 1 .148-.317c0-.008.074-.164.113-.246a.36.36 0 0 1 .13-.144c.089-.043.109-.043 1.984-.047 2.437 0 6.437-.02 6.734-.031.14-.008.39-.016.562-.02l.313-.008.027.031c.024.028.032.043.032.075 0 .11-.063.332-.153.582l-.222.675a1 1 0 0 0-.043.165c-.016.023-.028.078-.04.125l-.039.136c-.011.035-.023.067-.023.075 0 0-.012.03-.02.07-.02.062-.035.148-.074.262l-.043.16a2 2 0 0 1-.043.172 2 2 0 0 0-.07.261 1 1 0 0 1-.043.145l-.059.168c-.011.062-.03.125-.046.18-.07.195-.102.402-.082.445.023.05.128.05.242-.008.07-.031.402-.191.437-.219.02-.004.07-.031.114-.05.054-.032.113-.055.167-.079a1 1 0 0 1 .094-.039c.008 0 .043-.02.09-.039.043-.023.078-.043.086-.043s.07-.023.145-.062l.199-.094c.117-.055.82-.398.914-.45.004-.007.125-.062.262-.132a10 10 0 0 0 .343-.168c.035-.02.075-.035.086-.043.008 0 .106-.05.219-.105.187-.094.293-.153.332-.168a23 23 0 0 1 .8-.391c.055-.023.126-.055.157-.066a3 3 0 0 1 .254-.125c.11-.06.234-.114.277-.133.043-.024.125-.063.188-.094.062-.031.117-.055.117-.055.008 0 .07-.027.355-.164.079-.035.141-.066.145-.066.008 0 .043-.02.09-.04l.078-.038a.06.06 0 0 0 .039-.016c.043-.02.242-.11.25-.11s.04-.015.082-.034c.035-.012.094-.043.129-.06.031-.01.094-.042.14-.062.137-.062.18-.085.266-.117.102-.043.14-.062.235-.105.043-.02.078-.04.086-.04s.042-.019.093-.034c.043-.02.082-.04.086-.04 0 0 .059-.023.121-.054a3 3 0 0 0 .18-.09c.074-.031.156-.066.281-.125.051-.023.09-.043.094-.043.008 0 .121-.05.434-.2.222-.113.242-.124.418-.206.148-.07.3-.145.347-.164.078-.043.09-.047.153-.075.035-.02.093-.043.117-.054.027-.012.074-.04.113-.051.07-.031.176-.074.332-.148l.336-.165c.094-.039.227-.105.25-.132q.105-.093-.035-.262a4.4 4.4 0 0 0-.477-.457c-.133-.117-.199-.18-.363-.328a7 7 0 0 0-.285-.266c-.02-.015-.047-.035-.059-.047-.004-.015-.062-.058-.113-.11-.055-.042-.106-.093-.11-.097l-.081-.074a3 3 0 0 0-.165-.152c-.093-.094-.28-.262-.375-.348-.035-.039-.074-.07-.117-.11-.07-.066-.074-.074-.289-.25-.086-.074-.176-.148-.199-.167a13 13 0 0 0-.562-.473c-.07-.059-.137-.113-.157-.133a1 1 0 0 0-.101-.086c-.032-.027-.075-.07-.098-.09a1.4 1.4 0 0 1-.145-.125c-.054-.05-.117-.097-.132-.113a3 3 0 0 0-.117-.105c-.051-.035-.086-.075-.094-.075 0-.007-.086-.082-.188-.167l-.218-.2-.176-.164c-.223-.199-.211-.187-.313-.281-.023-.023-.05-.043-.074-.07-.023-.024-.086-.075-.133-.117-.043-.04-.094-.083-.097-.086-.012-.016-.051-.047-.083-.079a.6.6 0 0 1-.105-.093c-.059-.047-.156-.13-.289-.23-.117-.095-.242-.192-.285-.231a25 25 0 0 1-.707-.562c-.008-.009-.04-.032-.063-.055a7 7 0 0 1-.48-.465 2 2 0 0 0-.196-.2c-.136-.105-.207-.125-.273-.085m7.422 6.921c0 .008 0 .016-.004.008 0 0-.027 0-.05.012-.04.012-.044.012-.024.027.023.024.097-.008.086-.039 0-.011-.008-.011-.008-.008m-.969.457c-.023.02-.023.02.028.012q.051 0 .05-.012c0-.023-.05-.02-.078 0m-3.328 7c-.871.012-1.437.032-1.602.04-.105.011-.269.02-.363.023a2 2 0 0 0-.281.02c-.066.007-.16.011-.211.019a.5.5 0 0 0-.125.012 1 1 0 0 1-.145.023c-.054.008-.105.02-.105.02-.008 0-.05.008-.094.011-.09.016-.136.028-.277.059a.6.6 0 0 0-.117.031c-.2.043-.414.13-.73.285a6 6 0 0 0-.72.403c-.664.418-1.144.824-1.53 1.293a5 5 0 0 0-.509.742c-.011.02-.035.07-.062.113-.02.043-.086.176-.145.293-.136.27-.18.36-.234.457-.059.106-.184.371-.234.48-.032.079-.032.094 0 .126l.027.027.324-.008c.18 0 .446-.004.582-.011.145-.008.785-.012 1.438-.012 1.554 0 4.699-.031 5.02-.051.199-.008.23 0 .234.05 0 .032-.012.063-.055.15a3 3 0 0 1-.324.495l-.145.203c-.043.063-.398.516-.46.59a5 5 0 0 1-.497.492c-.035.04-.082.07-.117.106-.105.094-.465.375-.543.434-.016.003-.082.054-.164.113a9 9 0 0 1-.668.449c-.02.012-.164.094-.187.113-.133.075-.438.23-.708.356a6 6 0 0 1-.43.176c-.1.03-.269.074-.331.093-.031.004-.094.024-.145.035-.226.07-.386.114-.449.125-.027.008-.059.012-.062.02a3 3 0 0 1-.293.055c-.04.008-.11.015-.145.02-.102.019-.52.042-.75.042-.215 0-.57-.015-.687-.043-.04-.004-.125-.02-.188-.02-.062-.003-.125-.015-.145-.015a.4.4 0 0 0-.085-.02c-.032-.007-.09-.011-.125-.027a.4.4 0 0 0-.09-.015.4.4 0 0 1-.086-.02q-.075-.02-.137-.039a11 11 0 0 1-.414-.129c-.043-.016-.102-.031-.125-.039-.055-.02-.219-.074-.344-.125-.05-.02-.101-.04-.105-.04 0 0-.02-.003-.04-.01a1 1 0 0 1-.105-.044 8 8 0 0 1-.73-.386 5 5 0 0 1-.457-.32c-.055-.044-.145-.106-.2-.15-.05-.042-.136-.105-.187-.144s-.133-.101-.184-.144q-.093-.075-.199-.149a65 65 0 0 1-.71-.574.4.4 0 0 0-.09-.07c-.044-.032-.075-.063-.087-.07a15 15 0 0 0-.855-.649 12 12 0 0 0-.652-.43c-.047-.03-.098-.062-.11-.078-.027-.015-.12-.066-.164-.094a6 6 0 0 0-.511-.265 3 3 0 0 0-.325-.156c-.008 0-.03-.016-.058-.028a6 6 0 0 0-.48-.18 3.5 3.5 0 0 0-.688-.152 2 2 0 0 1-.2-.023 10 10 0 0 0-.933-.032 6.7 6.7 0 0 0-1.313.106 1 1 0 0 1-.125.031c-.054.008-.156.04-.293.074-.023.008-.074.028-.113.04a1 1 0 0 0-.097.039.1.1 0 0 0-.043.015c-.008 0-.04.02-.079.031-.054.02-.367.184-.515.258a5.7 5.7 0 0 0-1.844 1.617c-.09.122-.477.704-.488.727 0 .008-.059.086-.121.18-.063.101-.13.203-.14.226q-.04.065-.08.125c-.023.043-.046.086-.054.094s-.031.055-.062.105c-.032.051-.074.122-.102.157-.023.039-.043.082-.055.093-.007.012-.023.051-.042.075l-.043.07a.5.5 0 0 1-.07.117c-.032.059-.075.125-.095.156a.7.7 0 0 1-.101.176c-.066.121-.094.164-.203.383-.04.066-.07.129-.078.137q-.008.013-.016.031a18 18 0 0 0-.426.836c-.062.144-.082.176-.113.246a5.5 5.5 0 0 1-.375.707.5.5 0 0 0-.082.125c-.02.031-.055.078-.074.117-.024.04-.055.086-.07.114l-.063.117c-.098.187-.117.23-.11.258.004.023.016.023.047.03.094.005.22-.093.782-.652.11-.105.215-.203.238-.222.027-.02.082-.07.133-.114.137-.132.18-.164.355-.304.207-.164.492-.383.602-.446.023-.019.203-.136.25-.167.097-.07.324-.22.344-.227.011-.012.046-.031.078-.05.172-.11.672-.411.687-.411.008 0 .04-.012.07-.039.075-.035.196-.098.29-.145.191-.086.28-.125.285-.125a.1.1 0 0 0 .05-.015 1.3 1.3 0 0 1 .239-.082c.043-.02.097-.031.125-.043.117-.04.285-.082.355-.094.02 0 .055-.016.082-.02.051-.011.176-.042.332-.07.055-.011.137-.031.18-.035a.4.4 0 0 1 .113-.02c.012-.007.086-.011.16-.027.165-.023.582-.023.72-.004.046.004.112.02.152.02l.125.015c.093.028.21.051.285.063.133.02.234.05.422.11l.128.042c.043.02.188.067.301.114a.4.4 0 0 1 .082.035.1.1 0 0 0 .032.011 4.5 4.5 0 0 1 .648.344c.031.02.176.113.375.25l.227.172c.05.043.175.137.27.203.097.078.187.145.198.156.012.016.051.047.086.079a.3.3 0 0 1 .074.054c0 .008.079.063.157.133.14.11.238.191.414.336a1 1 0 0 1 .082.07c.043.035.066.047.23.18.137.113.313.238.383.29a8 8 0 0 0 .48.324c.098.066.18.116.188.116 0 0 .023.02.055.04.031.02.133.082.226.136.16.086.219.117.356.196.031.015.086.046.133.074.078.043.336.168.503.25.051.023.153.066.215.097.067.032.117.059.125.059 0 0 .032.012.063.031.035.02.097.043.14.063.082.031.145.054.215.086a.1.1 0 0 0 .035.011c.008 0 .032.016.051.02l.153.062c.054.02.14.051.187.07.18.075.461.157.625.192.035.008.074.02.078.028.016.003.094.023.29.074.042.011.093.023.116.039.028.004.079.015.114.023.039.012.105.024.152.04.094.015.168.034.266.062.047.004.101.015.14.023a.5.5 0 0 0 .14.024c.048.008.102.02.122.02.02.007.055.01.082.019.031 0 .11.011.18.02.144.011.71.034 1.156.05.273.004.5 0 .95-.027a7 7 0 0 0 .632-.082c.098-.016.188-.035.406-.078.125-.028.176-.04.332-.07a1 1 0 0 0 .106-.024c.011 0 .05-.016.082-.02.137-.031.219-.058.293-.074a1 1 0 0 1 .148-.039c.07-.02.156-.04.281-.082a.7.7 0 0 0 .133-.035c.16-.047.336-.11.48-.156.044-.02.106-.047.137-.059.239-.086.387-.145.407-.148a1 1 0 0 1 .082-.04c.074-.023.164-.062.226-.093a.4.4 0 0 0 .086-.035c.164-.07.739-.36.774-.391l.05-.023a1 1 0 0 0 .094-.055c.028-.02.063-.04.074-.047a.1.1 0 0 0 .047-.023l.16-.094c.02-.008.043-.02.06-.024l.097-.062c.043-.031.113-.07.144-.09.04-.023.086-.055.106-.066.09-.051.543-.364.636-.426a1.3 1.3 0 0 1 .153-.114 5 5 0 0 1 .273-.21 1 1 0 0 1 .09-.07c.047-.04.086-.071.094-.075.004 0 .047-.039.097-.074.06-.04.094-.078.102-.082 0 0 .05-.043.113-.09.16-.137.297-.254.41-.36.133-.132.434-.425.497-.496.117-.125.18-.19.23-.253a1 1 0 0 1 .074-.082c.008-.012.055-.07.106-.133.05-.055.093-.114.093-.114a4 4 0 0 0 .293-.347c.063-.082.125-.153.125-.156.008 0 .04-.04.07-.083a4 4 0 0 1 .165-.199c.086-.113.168-.218.222-.293a1 1 0 0 1 .051-.078 14 14 0 0 0 .414-.637l.035-.054.075-.121a5 5 0 0 0 .34-.625c.125-.254.18-.36.218-.461q.016-.048.043-.094c.043-.105.106-.258.18-.445.047-.11.09-.223.094-.242a.05.05 0 0 0 .02-.04s.007-.03.019-.054a1 1 0 0 1 .043-.114c.011-.035.027-.066.039-.105.004-.02.023-.07.035-.105.016-.043.047-.137.07-.208l.063-.18c.133-.421.148-.5.23-.777.008-.023.02-.082.031-.117.043-.164.07-.258.09-.32.004-.035.024-.098.032-.145a.5.5 0 0 1 .023-.105c.043-.176.063-.273.094-.55.008-.075.02-.161.02-.2.003-.031.019-.156.023-.27 0-.109.011-.21.011-.222 0-.008.016-.176.02-.375.008-.2.02-.364.02-.371.007-.004.007-.063.007-.13 0-.226-.027-.25-.27-.26-.323-.028-.945-.032-3.027-.04-1.199-.008-2.261-.012-2.355-.02z"/></svg>